<mxfile host="app.diagrams.net" modified="2022-10-10T13:54:29.559Z" agent="5.0 (Windows NT 10.0; Win64; x64) AppleWebKit/537.36 (KHTML, like Gecko) Chrome/105.0.0.0 Safari/537.36" etag="lMc9QjstfL-J7eXEsiq3" version="20.4.0" type="github">
  <diagram id="owS17A0AmA7QNwfMR9ii" name="Page-1">
    <mxGraphModel dx="2912" dy="1122" grid="1" gridSize="10" guides="1" tooltips="1" connect="1" arrows="1" fold="1" page="1" pageScale="1" pageWidth="850" pageHeight="1100" math="0" shadow="0">
      <root>
        <mxCell id="0" />
        <mxCell id="1" parent="0" />
        <mxCell id="dJm38puGOsRGrPPdJ0Z8-1" value="&lt;br&gt;&lt;table align=&quot;center&quot; cellpadding=&quot;0&quot; cellspacing=&quot;0&quot;&gt; &lt;tbody&gt;&lt;tr&gt;  &lt;td align=&quot;left&quot; valign=&quot;top&quot;&gt;&lt;p class=&quot;MsoNormal&quot;&gt;&lt;span style=&quot;background-color: initial; text-align: center;&quot;&gt;Admin(Back Officer)/&lt;/span&gt;&lt;span&gt;Janitor and Collector&lt;/span&gt;&lt;/p&gt;  &lt;/td&gt; &lt;/tr&gt;&lt;/tbody&gt;&lt;/table&gt;" style="shape=umlActor;verticalLabelPosition=bottom;verticalAlign=top;html=1;outlineConnect=0;" parent="1" vertex="1">
          <mxGeometry x="60" y="370" width="40" height="70" as="geometry" />
        </mxCell>
        <mxCell id="dJm38puGOsRGrPPdJ0Z8-3" value="&lt;b&gt;Login/ResetPassword/ChangeInfo&lt;/b&gt;" style="shape=umlFrame;whiteSpace=wrap;html=1;width=220;height=30;fillColor=#fad7ac;strokeColor=#000000;" parent="1" vertex="1">
          <mxGeometry x="210" y="50" width="710" height="580" as="geometry" />
        </mxCell>
        <mxCell id="dJm38puGOsRGrPPdJ0Z8-9" value="Đăng nhập" style="ellipse;whiteSpace=wrap;html=1;fillColor=#b1ddf0;strokeColor=#10739e;" parent="1" vertex="1">
          <mxGeometry x="540" y="380" width="140" height="70" as="geometry" />
        </mxCell>
        <mxCell id="dJm38puGOsRGrPPdJ0Z8-10" value="" style="endArrow=open;endFill=1;html=1;rounded=0;" parent="1" edge="1">
          <mxGeometry width="160" relative="1" as="geometry">
            <mxPoint x="120" y="400" as="sourcePoint" />
            <mxPoint x="280" y="400" as="targetPoint" />
          </mxGeometry>
        </mxCell>
        <mxCell id="dJm38puGOsRGrPPdJ0Z8-28" value="Quên/đặt lại mật khẩu" style="ellipse;whiteSpace=wrap;html=1;fillColor=#b1ddf0;strokeColor=#10739e;" parent="1" vertex="1">
          <mxGeometry x="530" y="190" width="140" height="70" as="geometry" />
        </mxCell>
        <mxCell id="dJm38puGOsRGrPPdJ0Z8-29" value="" style="endArrow=classicThin;dashed=1;endFill=1;html=1;rounded=0;exitX=0;exitY=0.5;exitDx=0;exitDy=0;" parent="1" source="dJm38puGOsRGrPPdJ0Z8-28" target="JEWwFj7WXiek1-D3HMGD-1" edge="1">
          <mxGeometry width="160" relative="1" as="geometry">
            <mxPoint x="950" y="265" as="sourcePoint" />
            <mxPoint x="370" y="230" as="targetPoint" />
          </mxGeometry>
        </mxCell>
        <mxCell id="dJm38puGOsRGrPPdJ0Z8-30" value="&amp;lt;&amp;lt;extend&amp;gt;&amp;gt;" style="edgeLabel;html=1;align=center;verticalAlign=middle;resizable=0;points=[];" parent="dJm38puGOsRGrPPdJ0Z8-29" vertex="1" connectable="0">
          <mxGeometry x="-0.2375" y="-1" relative="1" as="geometry">
            <mxPoint as="offset" />
          </mxGeometry>
        </mxCell>
        <mxCell id="JEWwFj7WXiek1-D3HMGD-1" value="Authentication&lt;br&gt;&amp;nbsp;(Chứng thực bạn là ai?)" style="ellipse;whiteSpace=wrap;html=1;fillColor=#b1ddf0;strokeColor=#10739e;" parent="1" vertex="1">
          <mxGeometry x="280" y="360" width="145" height="80" as="geometry" />
        </mxCell>
        <mxCell id="JEWwFj7WXiek1-D3HMGD-4" value="" style="endArrow=classicThin;dashed=1;endFill=1;html=1;rounded=0;exitX=0;exitY=0.5;exitDx=0;exitDy=0;" parent="1" source="dJm38puGOsRGrPPdJ0Z8-9" target="JEWwFj7WXiek1-D3HMGD-1" edge="1">
          <mxGeometry width="160" relative="1" as="geometry">
            <mxPoint x="810" y="325" as="sourcePoint" />
            <mxPoint x="810" y="255" as="targetPoint" />
          </mxGeometry>
        </mxCell>
        <mxCell id="JEWwFj7WXiek1-D3HMGD-5" value="&amp;lt;&amp;lt;extend&amp;gt;&amp;gt;" style="edgeLabel;html=1;align=center;verticalAlign=middle;resizable=0;points=[];" parent="JEWwFj7WXiek1-D3HMGD-4" vertex="1" connectable="0">
          <mxGeometry x="-0.2375" y="-1" relative="1" as="geometry">
            <mxPoint as="offset" />
          </mxGeometry>
        </mxCell>
        <mxCell id="BM3ehFr5B6D-teGARl3j-1" value="Chỉnh sửa thông tin cá nhân" style="ellipse;whiteSpace=wrap;html=1;fillColor=#b1ddf0;strokeColor=#10739e;" vertex="1" parent="1">
          <mxGeometry x="730" y="280" width="140" height="70" as="geometry" />
        </mxCell>
        <mxCell id="BM3ehFr5B6D-teGARl3j-2" value="" style="endArrow=classicThin;dashed=1;endFill=1;html=1;rounded=0;exitX=0.064;exitY=0.786;exitDx=0;exitDy=0;exitPerimeter=0;" edge="1" parent="1" source="BM3ehFr5B6D-teGARl3j-1" target="dJm38puGOsRGrPPdJ0Z8-9">
          <mxGeometry width="160" relative="1" as="geometry">
            <mxPoint x="550" y="425" as="sourcePoint" />
            <mxPoint x="434.2456998176449" y="415.75500265916935" as="targetPoint" />
          </mxGeometry>
        </mxCell>
        <mxCell id="BM3ehFr5B6D-teGARl3j-3" value="&amp;lt;&amp;lt;extend&amp;gt;&amp;gt;" style="edgeLabel;html=1;align=center;verticalAlign=middle;resizable=0;points=[];" vertex="1" connectable="0" parent="BM3ehFr5B6D-teGARl3j-2">
          <mxGeometry x="-0.2375" y="-1" relative="1" as="geometry">
            <mxPoint as="offset" />
          </mxGeometry>
        </mxCell>
      </root>
    </mxGraphModel>
  </diagram>
</mxfile>
